<svg id="Layer_5" enable-background="new 0 0 64 64" height="512" viewBox="0 0 64 64" width="512" xmlns="http://www.w3.org/2000/svg"><g><path d="m21 41h8.032l-4.167 5h4.135v9h6v-9h4.135l-4.167-5h8.032v-18h6v-8h-34v8h6zm12.361-11.833 2.055-2.226-2.106-1.93 7.69-6.793v19.225zm-1.534-5.515-7.256-6.652h14.786zm.757 3.407-9.584 10.383v-19.169zm.416 16.941v9h-2v-9h-1.865l2.865-3.438 2.865 3.438zm-1-6.562-1.302 1.562h-6.414l7.716-8.359 7.716 8.359h-6.414zm15-16.438h-4v-4h4zm-30 0v-4h4v4z"/><path d="m60 9c1.654 0 3-1.346 3-3v-2c0-1.654-1.346-3-3-3h-56c-1.654 0-3 1.346-3 3v2c0 1.654 1.346 3 3 3h1v54h54v-24.685c2.361-1.126 4-3.53 4-6.315s-1.639-5.189-4-6.315v-16.685zm-57-3v-2c0-.551.449-1 1-1h56c.551 0 1 .449 1 1v2c0 .551-.449 1-1 1h-56c-.551 0-1-.449-1-1zm58 26c0 2.757-2.243 5-5 5s-5-2.243-5-5 2.243-5 5-5 5 2.243 5 5zm-8-6.315c-2.361 1.126-4 3.53-4 6.315s1.639 5.189 4 6.315v18.685h-42v-44h42zm4-.605c-.328-.047-.66-.08-1-.08s-.672.033-1 .08v-14.08h-46v48h46v-20.08c.328.047.66.08 1 .08s.672-.033 1-.08v22.08h-50v-52h50z"/><path d="m53 32c0 1.654 1.346 3 3 3s3-1.346 3-3-1.346-3-3-3-3 1.346-3 3zm4 0c0 .551-.449 1-1 1s-1-.449-1-1 .449-1 1-1 1 .449 1 1z"/><path d="m13 41h2v2h-2z"/><path d="m13 53h2v2h-2z"/><path d="m13 45h2v2h-2z"/><path d="m13 49h2v2h-2z"/></g></svg>